<svg width="325" height="242" viewBox="0 0 325 242" fill="none" xmlns="http://www.w3.org/2000/svg">
<rect width="325" height="242" fill="#1E1E1E"/>
<rect width="325" height="241.32" rx="10" fill="white"/>
<path d="M291.618 52.8026L297.387 47.0341L299.694 49.3415L300.271 49.9184L294.503 55.6869L291.618 52.8026Z" fill="#2563EB" stroke="#2563EB"/>
<path d="M13 13V198.169L171.634 37.2277H171.057H128.37L46.4573 120.294V13H13Z" fill="#111111" stroke="#111111"/>
<path d="M106.45 119.14L81.6451 143.368L164.711 229.319H187.209L272.582 127.059V107.026L287.004 90.8747L284.696 88.5673L268.544 106.064V126.063L259.315 136.446V90.8747L294.503 55.6869L291.618 52.8026L255.854 89.1441V98.9506L175.672 190.67L107.026 118.563L106.45 119.14Z" fill="#111111" stroke="#111111"/>
<path d="M207.398 138.176L209.706 140.484L238.548 107.603V90.2979L263.93 61.4554L261.045 59.148L235.087 89.1442V105.873L207.398 138.176Z" fill="#111111" stroke="#111111"/>
<path d="M267.272 47.5263C270.904 47.5264 273.847 50.4708 273.847 54.1024C273.847 57.734 270.904 60.6775 267.272 60.6776C263.64 60.6776 260.696 57.7341 260.696 54.1024C260.696 50.4707 263.64 47.5263 267.272 47.5263Z" stroke="#191E22" stroke-width="3"/>
<path d="M290.29 77.5502C293.922 77.5503 296.865 80.4947 296.865 84.1263C296.865 87.7579 293.922 90.7014 290.29 90.7015C286.659 90.7015 283.714 87.758 283.714 84.1263C283.714 80.4946 286.658 77.5502 290.29 77.5502Z" stroke="#191E22" stroke-width="3"/>
<circle cx="304.613" cy="42.4041" r="6.88739" stroke="#2563EB" stroke-width="3"/>
</svg>
